<?xml version="1.0" encoding="utf-8"?>
<!-- Generator: Adobe Illustrator 19.2.1, SVG Export Plug-In . SVG Version: 6.00 Build 0)  -->
<svg version="1.1" id="layer" xmlns="http://www.w3.org/2000/svg" xmlns:xlink="http://www.w3.org/1999/xlink" x="0px" y="0px"
	 viewBox="0 0 652 652" style="enable-background:new 0 0 652 652;" xml:space="preserve">
<style type="text/css">
	.st0{fill:#007D43;}
	.st1{fill:#FFF1C0;}
	.st2{fill:#FFFFFF;}
	.st3{fill:#49965F;}
	.st4{fill:#05894F;}
	.st5{fill:#3D925A;}
	.st6{fill:#7DAB76;}
	.st7{fill:#FFDC09;}
	.st8{fill:#FFEB98;}
</style>
<path class="st0" d="M543,382.1c7.1-0.4,9.1-1.4,14.7-15.2l22.6-55.3h1.7l27.9,62.9c2.7,6,5.1,7.6,10.5,7.6v3.7
	c-7.1-0.1-11.6-0.3-15.8-0.3c-4.1,0-8.5,0.2-16,0.3v-3.7c6.1,0,7.7-1,7.7-3.8c0-1.1-0.7-3.3-2.9-8.4l-4-9.5H567l-3.4,8.3
	c-2.6,7.2-2.8,8.5-2.8,9.6c0,2.7,0.6,3.8,7.3,3.9v3.7c-9.2-0.3-10.3-0.3-12.7-0.3c-2.6,0-3.6,0-12.4,0.3L543,382.1L543,382.1z
	 M587.6,356l-10.2-24.2l-8.9,24.2H587.6z"/>
<path class="st0" d="M353.8,382.1c6.7-0.1,8.5-2.6,8.5-8.3v-50.4c0-5.8-1.9-8.2-8.5-8.3v-3.7c3.5,0.1,8.5,0.3,13.8,0.3
	c15.8,0,28.4-0.2,38-0.3l0.4,17.9h-3.3c-1.7-9.9-6.1-13.4-18.4-13.4h-9v29.5h7.9c9.4,0,10.7-3.2,11.4-9.7h3.5
	c-0.1,4-0.2,7.8-0.2,11.1c0,4.8,0.1,8.8,0.2,12.9h-3.5c0-8.1-2.6-10-11.5-10h-7.8V374c0,4.7,2,7.3,11.6,7.3c10.5,0,17.8-2,20.3-14.9
	h3.5c-0.6,4.9-1.5,14.2-1.5,19.4c-10-0.1-23.1-0.3-39.2-0.3c-7.9,0-14.1,0.2-16.2,0.3L353.8,382.1L353.8,382.1z"/>
<path class="st0" d="M421.1,382.1c6.7-0.1,8.5-2.6,8.5-8.3v-50.4c0-5.8-1.9-8.2-8.5-8.3v-3.7c4.8,0.1,9,0.3,12.8,0.3
	c6.7,0,13.5-0.3,20.2-0.3c17.9,0,23.6,9.6,23.6,19.7c0,7-4.3,14.8-14.3,17.9l12.9,23.7c4.6,8.5,7.1,10.5,13,11.3v2.5
	c-1.5,0.1-3.1,0.2-4.7,0.2c-13.7,0-19.3-4.7-25.1-17l-4-8.2c-4.3-9.2-5.8-9.9-12.7-10v22.4c0,5.8,1.9,8.2,8.5,8.3v3.7
	c-8.2-0.2-11.7-0.3-15-0.3s-6.8,0.1-15,0.3L421.1,382.1L421.1,382.1z M442.6,347c2,0.4,4.7,0.7,6.8,0.7c9.3,0,14.8-4,14.8-14
	c0-7.5-3.8-18.7-17.2-18.7c-1.8,0-3,0.1-4.4,0.4V347z"/>
<path class="st0" d="M503.7,382.1c6.7-0.1,8.5-2.6,8.5-8.3v-56.7h-9.1c-8.2,0-13.7,2.3-14.3,15.2h-3.8l0.6-21c11,0.1,22,0.2,33,0.3
	c11,0.1,22-0.2,33-0.3l0.6,21h-3.8c-0.6-13-6.1-15.2-14.3-15.2h-9.1v56.7c0,5.8,1.8,8.2,8.5,8.3v3.7c-8.2-0.2-11.7-0.3-15-0.3
	c-3.3,0-6.8,0.1-15,0.3L503.7,382.1L503.7,382.1z"/>
<path class="st0" d="M364.2,296.5l-5.9-12.5h-2.8v12.5h-8.2V263h13.3c7.4,0,11.4,5.3,11.4,10.8c0,4.6-2.8,7.4-5.5,8.8l7.3,14H364.2z
	 M360.2,270.4h-4.7v6.8h4.7c2.3,0,3.6-1.6,3.6-3.4S362.4,270.4,360.2,270.4z"/>
<path class="st0" d="M396.7,296.8c-5.1,0-9.3-0.9-12.7-4.4l5.3-5.3c1.7,1.7,4.8,2.4,7.5,2.4c3.2,0,4.8-1.1,4.8-3
	c0-0.8-0.2-1.5-0.7-2c-0.4-0.4-1.1-0.8-2.2-0.9l-4-0.6c-3-0.4-5.2-1.4-6.7-3c-1.6-1.6-2.3-3.9-2.3-6.7c0-6.1,4.6-10.6,12.2-10.6
	c4.8,0,8.4,1.1,11.3,4l-5.2,5.2c-2.1-2.1-4.9-2-6.4-2c-2.9,0-4,1.6-4,3.1c0,0.4,0.1,1,0.7,1.6c0.4,0.4,1.1,0.8,2.3,1l4,0.6
	c3,0.4,5.2,1.4,6.6,2.8c1.8,1.7,2.5,4.2,2.5,7.3C409.6,293.1,403.7,296.8,396.7,296.8z"/>
<path class="st0" d="M424,296.5V263h8.2v33.5H424z"/>
<path class="st0" d="M462.7,270.3v26.2h-8.2v-26.2h-8.2V263h24.7v7.3H462.7z"/>
<path class="st0" d="M499.8,282.8v13.6h-8.2v-13.6L481.5,263h9l5.3,12.1L501,263h9L499.8,282.8z"/>
<path class="st0" d="M558.5,293c-2.4,2.4-5.3,3.8-9.4,3.8s-6.9-1.3-9.4-3.8c-3.5-3.5-3.4-8.2-3.4-13.3c0-5-0.1-9.7,3.4-13.3
	c2.4-2.4,5.3-3.8,9.4-3.8s6.9,1.3,9.4,3.8c3.5,3.5,3.4,8.2,3.4,13.3C561.9,284.8,562,289.5,558.5,293z M552.4,271.5
	c-0.6-0.8-1.8-1.5-3.3-1.5c-1.5,0-2.7,0.7-3.3,1.5c-0.8,1-1.2,2.1-1.2,8.2c0,6.1,0.5,7.2,1.2,8.2c0.6,0.8,1.8,1.5,3.3,1.5
	c1.5,0,2.7-0.7,3.3-1.5c0.8-1,1.2-2.1,1.2-8.2C553.6,273.6,553.2,272.5,552.4,271.5z"/>
<path class="st0" d="M584.8,270.3v5.9h12.4v7.3h-12.4v12.9h-8.2V263h22.8v7.3H584.8z"/>
<path class="st0" d="M137.9,382.1c7.1-0.4,9.1-1.4,14.7-15.2l22.6-55.3h1.7l27.9,62.9c2.7,6,5.1,7.6,10.5,7.6v3.7
	c-7.1-0.1-11.6-0.3-15.7-0.3c-4.1,0-8.5,0.2-16,0.3v-3.7c6.1,0,7.7-1,7.7-3.8c0-1.1-0.7-3.3-2.9-8.4l-4-9.5h-22.6l-3.4,8.3
	c-2.6,7.2-2.8,8.5-2.8,9.6c0,2.7,0.6,3.8,7.3,3.9v3.7c-9.2-0.3-10.3-0.3-12.7-0.3c-2.6,0-3.6,0-12.4,0.3L137.9,382.1L137.9,382.1z
	 M182.5,356l-10.2-24.2l-8.9,24.2H182.5z"/>
<path class="st0" d="M221.2,382.1c6.7-0.1,8.5-2.6,8.5-8.3v-50.4c0-5.8-1.9-8.2-8.5-8.3v-3.7c8.2,0.2,11.7,0.3,15,0.3
	c3.3,0,6.8-0.1,15-0.3v3.7c-6.7,0.1-8.5,2.6-8.5,8.3v50.4c0,5.4,3,7.1,11.5,7.1c13.6,0,20.4-1.7,22.4-14.5h3.5l-1.6,19.4
	c-5.1-0.1-12.7-0.1-21.4-0.2c-8.6-0.1-18.4-0.1-28.3-0.1c-3.1,0-5.8,0.1-7.6,0.3L221.2,382.1L221.2,382.1z"/>
<path class="st0" d="M285.4,382.1c6.7-0.1,8.5-2.6,8.5-8.3v-50.4c0-5.8-1.8-8.2-8.5-8.3v-3.7c4.9,0.2,9,0.3,13.1,0.3
	c6.4,0,12.8-0.3,19.2-0.3c10.7,0,23.8,3.7,23.8,18.7c0,8.1-6.4,14.8-17.3,16.6v0.2c12.4,1.7,20.3,7,20.3,19c0,5.7-2.4,11-5.8,14.2
	c-4.2,3.9-9.4,5.8-20.7,5.8c-6.9,0-15.4-0.3-20.8-0.3c-4.6,0-8.4,0.1-11.7,0.3L285.4,382.1L285.4,382.1z M306.9,345.7h4.9
	c10.2,0,16.6-4.1,16.6-13.4c0-10.7-5.7-16.9-16.9-16.9h-4.6L306.9,345.7L306.9,345.7z M306.9,374.9c0,4.9,2,6.4,8.8,6.4
	c9.9,0,14.7-4.6,14.7-13.4c0-11.6-8.2-18.4-22.1-18.4h-1.3L306.9,374.9L306.9,374.9z"/>
<path class="st0" d="M178,296.8c-7,0-12.7-4.7-12.7-12.1V263h8.2v21.6c0,3.1,1.7,4.9,4.4,4.9c2.7,0,4.5-1.8,4.5-4.9V263h8.2v21.7
	C190.8,292.1,185,296.8,178,296.8z"/>
<path class="st0" d="M225.1,296.5l-10.7-16.8v16.8h-8.2V263h7.2l10.7,16.9V263h8.2v33.5H225.1z"/>
<path class="st0" d="M248.3,296.5V263h8.2v33.5H248.3z"/>
<path class="st0" d="M286.3,296.5h-6.1L269.1,263h8.5l5.6,18.7l5.6-18.7h8.6L286.3,296.5z"/>
<path class="st0" d="M309.7,296.5V263h22.8v7.3h-14.5v5.6h12.4v7.3h-12.4v5.9h14.5v7.3C332.5,296.5,309.7,296.5,309.7,296.5z"/>
<path class="st0" d="M73.9,392.4l-1-0.3c-0.7-0.2-16.3-5.7-31.7-19C22.5,357,20.5,332.7,20.5,323v-60l1.8-0.9
	c14.7-7.2,31.1-10.5,51.6-10.5c20.5,0,36.9,3.3,51.6,10.5l1.8,0.9v60c0,9.7-2,34-20.7,50.1c-15.4,13.3-31.1,18.7-31.7,19L73.9,392.4
	z"/>
<path class="st1" d="M73.9,257.9c-18.7,0-33.8,2.9-47.2,9v39.3c5.5-3.2,10.1-7,13.6-11.1c4.2,4.8,9.9,9.3,16.8,12.8
	c6.9-3.6,12.6-8,16.8-12.8c4.2,4.8,9.9,9.3,16.8,12.8c6.9-3.6,12.6-8,16.7-12.8c3.5,4.1,8.1,7.9,13.6,11.1v-39.3
	C107.7,260.7,92.6,257.9,73.9,257.9z M97.7,289.1c-5.3,0-9.1-0.8-14.4-1.9c-1-0.2-1.9-0.3-2.8-0.3c-2.1,0-3.9,0.5-5.4,1.2
	c-0.4,0.2-0.8,0.4-1.2,0.7c-0.4-0.2-0.8-0.5-1.2-0.7c-1.5-0.7-3.3-1.2-5.4-1.2c-0.9,0-1.8,0.1-2.8,0.3c-5.3,1.1-9.1,1.9-14.4,1.9
	c-0.8,0-1.5,0-2.4,0l1.7-18c0.9,0,1.6,0.1,2.4,0.1l0.4-5.6l1.6,0.1c0.6,0,1.2,0,1.8,0c1.9,0,3.5-0.2,5.3-0.6
	c1.1-0.2,2.3-0.5,3.6-0.9c0.6-0.2,1.2-0.3,1.9-0.5c2.4-0.6,4.5-0.3,6.5,0.9c0.4,0.2,0.7,0.5,1.1,0.7c0.4-0.3,0.7-0.5,1.1-0.7
	c1.9-1.1,4.2-1.4,6.4-0.8c0.7,0.2,1.4,0.4,2,0.5c1.3,0.3,2.4,0.6,3.5,0.9c2.4,0.5,4.4,0.6,7,0.5l1.6-0.1l0.4,5.6
	c0.8,0,1.5,0,2.4-0.1l1.7,18C99.3,289.1,98.5,289.1,97.7,289.1z"/>
<path class="st2" d="M65.7,282l-0.1,0c-4.4,1.1-7.3,1.8-11.5,1.8l1.2-14.9c2.2,0,4.1-0.2,6.3-0.6c1.2-0.3,2.4-0.6,3.7-0.9
	c0.6-0.2,1.2-0.3,1.9-0.5c1.4-0.4,2.8-0.2,4,0.5c0.5,0.3,0.8,0.5,1.1,0.8v14.1C70.1,281.6,67.8,281.5,65.7,282z"/>
<path class="st2" d="M82.1,282c-2.2-0.6-4.4-0.5-6.5,0.3v-14c0.3-0.3,0.7-0.6,1.1-0.8c1.2-0.7,2.6-0.9,4-0.5c0.7,0.2,1.3,0.4,2,0.5
	c1.3,0.4,2.5,0.7,3.7,0.9c2,0.4,3.9,0.6,6,0.6c0.1,0,0.2,0,0.3,0l1.2,14.9C89.4,283.9,86.5,283.1,82.1,282z"/>
<path class="st3" d="M73.9,313.9c6.1-1.4,11.8-3.5,16.8-6c-6.9-3.6-12.6-8-16.8-12.8c-4.2,4.8-9.9,9.3-16.8,12.8
	C62.1,310.4,67.8,312.5,73.9,313.9z"/>
<path class="st4" d="M40.4,313.9c5.3,1.2,10.9,1.9,16.8,1.9c5.9,0,11.5-0.7,16.7-1.9c-6.1-1.4-11.8-3.5-16.8-6
	C52.1,310.4,46.5,312.5,40.4,313.9z"/>
<path class="st4" d="M73.9,313.9c5.2,1.2,10.8,1.9,16.7,1.9c5.9,0,11.5-0.7,16.8-1.9c-6.1-1.4-11.7-3.5-16.7-6
	C85.6,310.4,80,312.5,73.9,313.9z"/>
<path class="st5" d="M26.7,315.7c4.8-0.2,9.3-0.8,13.7-1.8c-4.9-1.1-9.5-2.7-13.7-4.6V315.7z"/>
<path class="st6" d="M26.7,306.1v3.2c4.2,1.9,8.8,3.5,13.7,4.6c6.1-1.4,11.7-3.5,16.7-6c-6.9-3.6-12.6-8-16.8-12.8
	C36.8,299.1,32.2,302.9,26.7,306.1z"/>
<path class="st5" d="M121,309.3c-4.2,1.9-8.8,3.5-13.7,4.6c4.3,1,8.9,1.6,13.7,1.8V309.3z"/>
<path class="st6" d="M121,309.3v-3.2c-5.5-3.2-10.1-7-13.6-11.1c-4.2,4.8-9.9,9.3-16.7,12.8c5,2.6,10.6,4.6,16.7,6
	C112.3,312.8,116.8,311.2,121,309.3z"/>
<path class="st7" d="M115.3,324.2c-2.5-1.6-4.8-3.1-7.9-3.1c-3.1,0-5.4,1.5-7.9,3.1c-2.6,1.6-5.2,3.3-8.8,3.3
	c-3.6,0-6.3-1.7-8.8-3.3c-2.5-1.6-4.8-3.1-7.9-3.1c-3.1,0-5.4,1.5-7.9,3.1c-2.6,1.6-5.3,3.3-8.8,3.3c-3.6,0-6.2-1.7-8.8-3.3
	c-2.5-1.6-4.8-3.1-7.9-3.1c-3.1,0-5.4,1.5-7.9,3.1c-1.7,1.1-3.5,2.2-5.6,2.8c0.1,2.4,0.4,5.1,0.9,8.2c1.5-0.6,2.8-1.5,4.1-2.3
	c2.5-1.6,5.1-3.2,8.4-3.2s5.9,1.6,8.4,3.2c2.6,1.6,5,3.2,8.3,3.2c3.3,0,5.7-1.5,8.3-3.2c2.5-1.6,5.1-3.2,8.4-3.2s5.9,1.6,8.4,3.2
	c2.6,1.6,5,3.2,8.3,3.2c3.3,0,5.7-1.5,8.3-3.2c2.5-1.6,5.1-3.2,8.4-3.2c3.4,0,5.9,1.6,8.4,3.2c1.3,0.8,2.7,1.7,4.1,2.3
	c0.5-3,0.8-5.8,0.9-8.2C118.8,326.5,117.1,325.3,115.3,324.2z"/>
<path class="st8" d="M78.7,383.7V380l-4.4,4.3l-3.7-3.6v-5.6l3.7,3.6l4.4-4.4v-6.2l-4.4,4.3l-3.7-3.6V363l3.7,3.6l4.4-4.4v-6.7
	l-4.4,4.3l-3.7-3.6v-5.5l3.7,3.4l6.3-6.1l-6.7-5.7l-7.3,6.4v33.8c3.4,1.7,6,2.7,7.3,3.3C74.9,385.4,76.6,384.7,78.7,383.7z"/>
<path class="st8" d="M62,368.8l-4.4,4.5l-3.7-3.8v-5.9l3.7,3.7l4.4-4.4v-7l-4.4,4.4l-3.7-3.7v-5.9l3.7,3.4l6.3-6.1l-6.7-5.7
	l-7.3,6.4v23.4c4.3,3.2,8.4,5.9,12.1,7.9L62,368.8L62,368.8z"/>
<path class="st8" d="M91,354.2l6.3-6.1l-6.7-5.7l-7.3,6.4v32.7c3.6-1.9,7.7-4.3,12.1-7.5v-5.2l-4.4,4.5l-3.7-3.8v-5.9l3.7,3.7
	l4.4-4.4v-7l-4.4,4.4l-3.7-3.7v-5.9L91,354.2z"/>
<path class="st8" d="M107.8,354.2l6.3-6.1l-6.7-5.7l-7.3,6.4v21.7c0.8-0.7,1.6-1.3,2.5-2c4-3.5,7.2-7.4,9.7-11.5V356l-4.4,4.4
	l-3.7-3.7v-5.9L107.8,354.2z"/>
<path class="st8" d="M40.8,354.2l6.3-6.1l-6.7-5.7l-7.3,6.4v3.6c2.7,5.7,6.6,11.3,12.1,16V356l-4.4,4.4l-3.7-3.7v-5.9L40.8,354.2z"
	/>
</svg>
